name C:\Users\u0101727\Documents\MyRepositories\upper-imu-dc\OpenSim\subject0\MA\MA_Splines\angle_in_n6_dof6_1.mot
datacolumns 7
datarows 33
range 125.01000000 125.33000000
endheader 
time	clav_prot	clav_elev	scapula_abduction	scapula_elevation	scapula_upward_rot	scapula_winging	
        125.01000000	        -36.17913537	         -2.74924671	         11.28790885	          1.12405674	         54.58874201	        -12.12692714	
        125.02000000	        -29.75473540	         -2.74924671	         11.28790885	          1.12405674	         54.58874201	        -12.12692714	
        125.03000000	        -23.33033544	         -2.74924671	         11.28790885	          1.12405674	         54.58874201	        -12.12692714	
        125.04000000	        -16.90593547	         -2.74924671	         11.28790885	          1.12405674	         54.58874201	        -12.12692714	
        125.05000000	        -49.02793530	          2.15399008	         11.28790885	          1.12405674	         54.58874201	        -12.12692714	
        125.06000000	        -42.60353533	          2.15399008	         11.28790885	          1.12405674	         54.58874201	        -12.12692714	
        125.07000000	        -36.17913537	          2.15399008	         11.28790885	          1.12405674	         54.58874201	        -12.12692714	
        125.08000000	        -29.75473540	          2.15399008	         11.28790885	          1.12405674	         54.58874201	        -12.12692714	
        125.09000000	        -23.33033544	          2.15399008	         11.28790885	          1.12405674	         54.58874201	        -12.12692714	
        125.10000000	        -16.90593547	          2.15399008	         11.28790885	          1.12405674	         54.58874201	        -12.12692714	
        125.11000000	        -49.02793530	          7.05722688	         11.28790885	          1.12405674	         54.58874201	        -12.12692714	
        125.12000000	        -42.60353533	          7.05722688	         11.28790885	          1.12405674	         54.58874201	        -12.12692714	
        125.13000000	        -36.17913537	          7.05722688	         11.28790885	          1.12405674	         54.58874201	        -12.12692714	
        125.14000000	        -29.75473540	          7.05722688	         11.28790885	          1.12405674	         54.58874201	        -12.12692714	
        125.15000000	        -23.33033544	          7.05722688	         11.28790885	          1.12405674	         54.58874201	        -12.12692714	
        125.16000000	        -16.90593547	          7.05722688	         11.28790885	          1.12405674	         54.58874201	        -12.12692714	
        125.17000000	        -49.02793530	         11.96046367	         11.28790885	          1.12405674	         54.58874201	        -12.12692714	
        125.18000000	        -42.60353533	         11.96046367	         11.28790885	          1.12405674	         54.58874201	        -12.12692714	
        125.19000000	        -36.17913537	         11.96046367	         11.28790885	          1.12405674	         54.58874201	        -12.12692714	
        125.20000000	        -29.75473540	         11.96046367	         11.28790885	          1.12405674	         54.58874201	        -12.12692714	
        125.21000000	        -23.33033544	         11.96046367	         11.28790885	          1.12405674	         54.58874201	        -12.12692714	
        125.22000000	        -16.90593547	         11.96046367	         11.28790885	          1.12405674	         54.58874201	        -12.12692714	
        125.23000000	        -49.02793530	         16.86370047	         11.28790885	          1.12405674	         54.58874201	        -12.12692714	
        125.24000000	        -42.60353533	         16.86370047	         11.28790885	          1.12405674	         54.58874201	        -12.12692714	
        125.25000000	        -36.17913537	         16.86370047	         11.28790885	          1.12405674	         54.58874201	        -12.12692714	
        125.26000000	        -29.75473540	         16.86370047	         11.28790885	          1.12405674	         54.58874201	        -12.12692714	
        125.27000000	        -23.33033544	         16.86370047	         11.28790885	          1.12405674	         54.58874201	        -12.12692714	
        125.28000000	        -16.90593547	         16.86370047	         11.28790885	          1.12405674	         54.58874201	        -12.12692714	
        125.29000000	        -49.02793530	         -7.65248351	        -37.40470623	          4.10553212	         54.58874201	        -12.12692714	
        125.30000000	        -42.60353533	         -7.65248351	        -37.40470623	          4.10553212	         54.58874201	        -12.12692714	
        125.31000000	        -36.17913537	         -7.65248351	        -37.40470623	          4.10553212	         54.58874201	        -12.12692714	
        125.32000000	        -29.75473540	         -7.65248351	        -37.40470623	          4.10553212	         54.58874201	        -12.12692714	
        125.33000000	        -23.33033544	         -7.65248351	        -37.40470623	          4.10553212	         54.58874201	        -12.12692714	
